<?xml version="1.0" standalone="no"?>
<!DOCTYPE svg PUBLIC "-//W3C//DTD SVG 20010904//EN"
 "http://www.w3.org/TR/2001/REC-SVG-20010904/DTD/svg10.dtd">
<svg version="1.0" xmlns="http://www.w3.org/2000/svg"
 width="1281.000000pt" height="272.000000pt" viewBox="0 0 1281.000000 272.000000"
 preserveAspectRatio="xMidYMid meet">
<metadata>
Created by potrace 1.15, written by Peter Selinger 2001-2017
</metadata>
<g transform="translate(0.000000,272.000000) scale(0.100000,-0.100000)"
fill="#000000" stroke="none">
<path d="M10 1374 c0 -1277 1 -1345 18 -1340 930 291 1857 460 3092 565 736
63 1316 86 2530 101 956 12 1423 30 2060 81 2201 174 3760 608 4590 1276 116
93 255 235 334 341 66 87 166 271 166 305 0 16 -311 17 -6395 17 l-6395 0 0
-1346z"/>
</g>
</svg>
