<svg width="27" height="21" viewBox="0 0 27 21" fill="none" xmlns="http://www.w3.org/2000/svg">
<path d="M26.2 15.3337V15.1337H26H13.6146C13.2613 13.1094 11.5744 11.5503 9.52273 11.5503C7.47102 11.5503 5.78418 13.1094 5.43088 15.1337H1H0.8V15.3337V16.5282V16.7282H1H5.43088C5.78418 18.7525 7.47102 20.3116 9.52273 20.3116C11.5744 20.3116 13.2613 18.7525 13.6146 16.7282H26H26.2V16.5282V15.3337ZM1 5.97791H13.3854C13.7387 8.00222 15.4256 9.56134 17.4773 9.56134C19.529 9.56134 21.2158 8.00222 21.5691 5.97791H26H26.2V5.77791V4.58343V4.38343H26H21.5691C21.2158 2.35912 19.529 0.8 17.4773 0.8C15.4256 0.8 13.7387 2.35912 13.3854 4.38343H1H0.8V4.58343V5.77791V5.97791H1ZM9.52273 18.7172C8.82562 18.7172 8.15493 18.4262 7.6588 17.9047C7.16236 17.3828 6.88182 16.673 6.88182 15.931C6.88182 15.1889 7.16236 14.4791 7.6588 13.9573C8.15493 13.4358 8.82562 13.1448 9.52273 13.1448C10.2198 13.1448 10.8905 13.4358 11.3867 13.9573C11.8831 14.4791 12.1636 15.1889 12.1636 15.931C12.1636 16.673 11.8831 17.3828 11.3867 17.9047C10.8905 18.4262 10.2198 18.7172 9.52273 18.7172ZM17.4773 2.39448C18.1744 2.39448 18.8451 2.68547 19.3412 3.20697C19.8376 3.7288 20.1182 4.4386 20.1182 5.18067C20.1182 5.92274 19.8376 6.63254 19.3412 7.15437C18.8451 7.67587 18.1744 7.96686 17.4773 7.96686C16.7802 7.96686 16.1095 7.67587 15.6133 7.15437C15.1169 6.63254 14.8364 5.92274 14.8364 5.18067C14.8364 4.4386 15.1169 3.7288 15.6133 3.20697C16.1095 2.68547 16.7802 2.39448 17.4773 2.39448Z" fill="#582C87" stroke="#582C87" stroke-width="0.4"/>
</svg>
