<?xml version="1.0" standalone="no"?>
<!DOCTYPE svg PUBLIC "-//W3C//DTD SVG 20010904//EN"
 "http://www.w3.org/TR/2001/REC-SVG-20010904/DTD/svg10.dtd">
<svg version="1.0" xmlns="http://www.w3.org/2000/svg"
 width="5120.000000pt" height="2228.000000pt" viewBox="0 0 5120.000000 2228.000000"
 preserveAspectRatio="xMidYMid meet">
<g transform="translate(0.000000,2228.000000) scale(0.100000,-0.100000)"
fill="#000000" stroke="none">
<path d="M0 11170 c0 -6110 2 -11110 5 -11110 3 0 101 31 218 69 4455 1452
10509 2313 17907 2546 1262 39 2059 53 3792 65 1711 12 2612 26 3733 60 6815
207 12374 928 16680 2165 3418 981 5983 2286 7530 3830 622 621 1053 1247
1289 1873 l46 124 0 5744 0 5744 -25600 0 -25600 0 0 -11110z"/>
</g>
</svg>
