<svg width="33" height="34" viewBox="0 0 33 34" fill="none" xmlns="http://www.w3.org/2000/svg">
<circle cx="16.2985" cy="16.9999" r="16.2985" fill="#E2E2E2"/>
<g clip-path="url(#clip0)">
<path d="M12.6381 23.985H9.69437V14.486H12.6381V23.985ZM11.097 13.303H11.0797C10.0061 13.303 9.31342 12.5723 9.31342 11.6676C9.31342 10.7281 10.0234 10.0148 11.1143 10.0148C12.2052 10.0148 12.8805 10.7281 12.8979 11.6676C12.8979 12.5723 12.2052 13.303 11.097 13.303ZM24.4477 23.985H21.1057V19.0615C21.1057 17.7741 20.5862 16.9042 19.4261 16.9042C18.5429 16.9042 18.0581 17.4957 17.833 18.0699C17.7464 18.2786 17.7637 18.557 17.7637 18.8527V23.985H14.439C14.439 23.985 14.4736 15.2863 14.439 14.5034H17.7464V15.9996C17.9369 15.3559 18.9931 14.4164 20.6901 14.4164C22.7854 14.4164 24.4304 15.7734 24.4304 18.7136V23.985H24.4477Z" fill="white"/>
</g>
<defs>
<clipPath id="clip0">
<rect width="15.1343" height="13.9701" fill="white" transform="translate(9.31342 10.0148)"/>
</clipPath>
</defs>
</svg>
