<svg width="33" height="33" viewBox="0 0 33 33" fill="none" xmlns="http://www.w3.org/2000/svg">
<circle cx="16.2985" cy="16.2985" r="16.2985" fill="#E2E2E2"/>
<path d="M22.5981 13.1254C22.5981 18.7468 18.8553 22.7947 13.3505 22.9724C11.0225 23.1501 9.42765 22.4521 8 21.3989C9.59486 21.5766 11.7428 21.0563 12.7974 19.9904C11.2026 19.9904 10.3023 19.1021 9.77492 17.8966H11.2026C9.77492 17.3637 8.69453 16.3104 8.69453 14.5593C9.0418 14.7369 9.40193 14.9019 10.1222 14.9019C8.8746 14.204 8.1672 11.9199 9.05466 10.5113C10.6495 12.2625 12.6045 13.8487 15.8328 14.0136C14.9325 10.5113 19.5756 8.73483 21.5305 11.0316C22.4309 10.854 22.9582 10.5113 23.6527 10.1434C23.4727 11.0316 22.9453 11.5519 22.2251 11.8945C22.9325 11.8945 23.4727 11.7168 24 11.3742C23.8328 12.0722 23.1254 12.7828 22.5981 13.1254Z" fill="white"/>
</svg>
